<svg width="124" height="29" viewBox="0 0 124 29" fill="none" xmlns="http://www.w3.org/2000/svg">
<path d="M12.76 28.48C8.76 28.48 5.64 27.3733 3.4 25.16C1.18667 22.9467 0.0800003 19.7867 0.0800003 15.68V-1.90735e-06H6.56V15.44C6.56 20.4533 8.64 22.96 12.8 22.96C14.8267 22.96 16.3733 22.36 17.44 21.16C18.5067 19.9333 19.04 18.0267 19.04 15.44V-1.90735e-06H25.44V15.68C25.44 19.7867 24.32 22.9467 22.08 25.16C19.8667 27.3733 16.76 28.48 12.76 28.48ZM43.1747 5.28H34.2147V-1.90735e-06H58.6147V5.28H49.6547V28H43.1747V5.28ZM85.135 22H72.135L69.655 28H63.015L75.495 -1.90735e-06H81.895L94.415 28H87.615L85.135 22ZM83.095 17.08L78.655 6.36L74.215 17.08H83.095ZM103.32 -1.90735e-06H109.8V22.72H123.84V28H103.32V-1.90735e-06Z" fill="white" fill-opacity="0.5"/>
</svg>
